#!OML:ASF H:\Punching\Project 1\Capture day 1\Session 1\female.ASF
:FULLY-SPECIFIED
:DEGREES
3134
root -1.11562 15.6313 5.13753 10.8729 4.38354 -5.45005
lowerback -5.37531 0.302672 6.92027
upperback -5.19059 0.210908 1.94708
thorax -2.35576 -0.0689715 -1.85367
lowerneck -14.9077 3.53922 10.1456
upperneck 35.2343 3.47513 -3.63017
head 15.0469 2.37632 -2.69814
rclavicle -8.69683e-017 -2.3059e-014
rhumerus -25.7012 4.88858 -82.6512
rradius 32.109
rwrist 6.11106
rhand -13.1956 -5.85326
rfingers 7.12502
rthumb 12.9047 -35.4343
lclavicle -8.69683e-017 -2.3059e-014
lhumerus -40.9389 1.01648 82.4478
lradius 48.9127
lwrist -10.6022
lhand -8.53742 11.9524
lfingers 7.12502
lthumb 17.3917 41.1943
rfemur -16.0551 -1.38144 32.1048
rtibia 23.509
rfoot -18.3473 -14.9887
rtoes 1.4696
lfemur -38.0984 -2.92407 -16.716
ltibia 55.5131
lfoot -16.9737 16.3503
ltoes -6.6039
3135
root -1.11119 15.6262 5.25108 10.9066 4.07976 -5.50985
lowerback -5.42038 0.413523 7.04529
upperback -5.15216 0.345904 1.83703
thorax -2.27939 -0.00441821 -2.03255
lowerneck -14.8601 3.55317 10.1524
upperneck 35.2059 3.50591 -3.64583
head 15.0256 2.3875 -2.70045
rclavicle 7.9079e-015 3.57812e-015
rhumerus -25.3568 5.37295 -83.041
rradius 32.5529
rwrist 5.68017
rhand -13.2677 -5.79959
rfingers 7.12502
rthumb 12.8352 -35.385
lclavicle 7.9079e-015 3.57812e-015
lhumerus -40.9746 0.975827 82.2938
lradius 49.0274
lwrist -10.7279
lhand -8.36572 11.891
lfingers 7.12502
lthumb 17.5569 41.1182
rfemur -15.4489 -1.1264 32.1497
rtibia 23.1955
rfoot -18.28 -15.0812
rtoes 1.97803
lfemur -38.5063 -3.3453 -16.4454
ltibia 53.3458
lfoot -17.3906 16.8335
ltoes -6.32757
3136
root -1.10632 15.6222 5.36612 10.9476 3.77839 -5.58332
lowerback -5.4627 0.521468 7.17212
upperback -5.12312 0.477874 1.73964
thorax -2.21373 0.0584614 -2.19913
lowerneck -14.8183 3.56959 10.1512
upperneck 35.1864 3.5436 -3.66467
head 15.0104 2.40033 -2.70167
rclavicle 8.57259e-016 -2.44505e-014
rhumerus -25.0546 5.86855 -83.4115
rradius 33.0198
rwrist 5.23671
rhand -13.3426 -5.77902
rfingers 7.12502
rthumb 12.7629 -35.3689
lclavicle 8.57259e-016 -2.44505e-014
lhumerus -41.015 0.969092 82.1394
lradius 49.053
lwrist -10.886
lhand -8.17543 11.8359
lfingers 7.12502
lthumb 17.74 41.0467
rfemur -14.7962 -0.888553 32.2058
rtibia 22.7782
rfoot -18.1734 -15.141
rtoes 2.45584
lfemur -38.8405 -3.77211 -16.1167
ltibia 51.0456
lfoot -17.7375 17.355
ltoes -5.94962
3137
root -1.10087 15.6188 5.48266 10.9917 3.48657 -5.66295
lowerback -5.50825 0.622986 7.29385
upperback -5.09889 0.601525 1.65452
thorax -2.15123 0.117505 -2.35018
lowerneck -14.7781 3.58961 10.1441
upperneck 35.1704 3.59069 -3.68965
head 14.998 2.41563 -2.7029
rclavicle -5.76476e-015 -5.96354e-015
rhumerus -24.7862 6.37327 -83.76
rradius 33.4989
rwrist 4.79326
rhand -13.3952 -5.78484
rfingers 7.12502
rthumb 12.7123 -35.3779
lclavicle -5.76476e-015 -5.96354e-015
lhumerus -41.0632 1.00644 81.9824
lradius 49.0024
lwrist -11.0684
lhand -7.9634 11.7884
lfingers 7.12502
lthumb 17.9441 40.9806
rfemur -14.099 -0.672742 32.2649
rtibia 22.2715
rfoot -18.0415 -15.1736
rtoes 2.87623
lfemur -39.1034 -4.21554 -15.7383
ltibia 48.637
lfoot -18.0217 17.9094
ltoes -5.48886
3138
root -1.09492 15.6149 5.60069 11.0267 3.21117 -5.74855
lowerback -5.57039 0.721497 7.41465
upperback -5.07188 0.719512 1.57918
thorax -2.0764 0.174531 -2.49039
lowerneck -14.7248 3.609 10.1403
upperneck 35.1585 3.6432 -3.72986
head 14.9853 2.43193 -2.71042
rclavicle -1.40578e-014 -1.94809e-014
rhumerus -24.5496 6.86318 -84.079
rradius 33.9798
rwrist 4.36857
rhand -13.4084 -5.83043
rfingers 7.12502
rthumb 12.6995 -35.4243
lclavicle -1.40578e-014 -1.94809e-014
lhumerus -41.1296 1.08897 81.8247
lradius 48.8942
lwrist -11.2721
lhand -7.73677 11.7406
lfingers 7.12502
lthumb 18.1621 40.9126
rfemur -13.3519 -0.468028 32.3282
rtibia 21.6935
rfoot -17.9 -15.2016
rtoes 3.21386
lfemur -39.2988 -4.66056 -15.3167
ltibia 46.1555
lfoot -18.2502 18.4607
ltoes -5.03395
3139
root -1.08871 15.6109 5.72052 11.0692 2.92559 -5.8488
lowerback -5.61967 0.814717 7.52637
upperback -5.05437 0.832622 1.5206
thorax -2.01866 0.229018 -2.60823
lowerneck -14.7006 3.63398 10.1325
upperneck 35.1661 3.7047 -3.77725
head 14.9895 2.45072 -2.71891
rclavicle -1.05604e-014 -3.97569e-015
rhumerus -24.3502 7.37289 -84.3838
rradius 34.4758
rwrist 3.9594
rhand -13.376 -5.90401
rfingers 7.12502
rthumb 12.7307 -35.4959
lclavicle -1.05604e-014 -3.97569e-015
lhumerus -41.1964 1.21581 81.6602
lradius 48.6956
lwrist -11.4583
lhand -7.52619 11.6823
lfingers 7.12502
lthumb 18.3647 40.8354
rfemur -12.5746 -0.270288 32.4027
rtibia 21.0475
rfoot -17.755 -15.2021
rtoes 3.41293
lfemur -39.4491 -5.09122 -14.8407
ltibia 43.6285
lfoot -18.4457 18.9913
ltoes -4.57799
3140
root -1.08217 15.6067 5.84216 11.113 2.6364 -5.95533
lowerback -5.66108 0.902103 7.6262
upperback -5.04632 0.939741 1.47384
thorax -1.97542 0.280428 -2.70732
lowerneck -14.6821 3.66363 10.1282
upperneck 35.1863 3.77484 -3.83324
head 15.0023 2.47273 -2.73038
rclavicle -1.4474e-014 -9.93923e-015
rhumerus -24.193 7.8875 -84.6738
rradius 34.9734
rwrist 3.57557
rhand -13.3223 -5.97003
rfingers 7.12502
rthumb 12.7825 -35.5587
lclavicle -1.4474e-014 -9.93923e-015
lhumerus -41.2815 1.38712 81.4872
lradius 48.4274
lwrist -11.6177
lhand -7.34028 11.603
lfingers 7.12502
lthumb 18.5435 40.7391
rfemur -11.7591 -0.0765768 32.4793
rtibia 20.3362
rfoot -17.615 -15.1909
rtoes 3.46121
lfemur -39.5551 -5.51963 -14.3196
ltibia 41.0859
lfoot -18.6091 19.4933
ltoes -4.211
3141
root -1.07543 15.6027 5.96565 11.1647 2.32993 -6.0679
lowerback -5.70107 0.989564 7.71173
upperback -5.04493 1.04802 1.43671
thorax -1.93954 0.332623 -2.78826
lowerneck -14.6938 3.69539 10.1221
upperneck 35.2296 3.84656 -3.89198
head 15.0333 2.49501 -2.74267
rclavicle -2.56246e-016 3.95085e-014
rhumerus -24.0712 8.39848 -84.9497
rradius 35.4682
rwrist 3.22165
rhand -13.2689 -6.01966
rfingers 7.12502
rthumb 12.834 -35.6051
lclavicle -2.56246e-016 3.95085e-014
lhumerus -41.3694 1.59536 81.3054
lradius 48.0861
lwrist -11.7398
lhand -7.18211 11.5141
lfingers 7.12502
lthumb 18.6957 40.6357
rfemur -10.9072 0.117277 32.5559
rtibia 19.5501
rfoot -17.4716 -15.1572
rtoes 3.36793
lfemur -39.6278 -5.95539 -13.7474
ltibia 38.5539
lfoot -18.7508 19.9676
ltoes -3.95119
3142
root -1.06857 15.5989 6.09098 11.2242 2.00464 -6.178
lowerback -5.72901 1.07795 7.77299
upperback -5.07272 1.16137 1.4086
thorax -1.94033 0.386225 -2.84629
lowerneck -14.6786 3.72622 10.1169
upperneck 35.295 3.92092 -3.95184
head 15.069 2.51924 -2.75585
rclavicle 6.563e-015 -2.33075e-014
rhumerus -24.0354 8.89348 -85.2109
rradius 35.9564
rwrist 2.91526
rhand -13.2359 -6.00174
rfingers 7.12502
rthumb 12.8658 -35.5852
lclavicle 6.563e-015 -2.33075e-014
lhumerus -41.5177 1.84963 81.1116
lradius 47.7005
lwrist -11.8469
lhand -7.03916 11.412
lfingers 7.12502
lthumb 18.8332 40.5203
rfemur -10.0186 0.309608 32.6228
rtibia 18.692
rfoot -17.3211 -15.101
rtoes 3.16266
lfemur -39.6744 -6.40614 -13.132
ltibia 36.0672
lfoot -18.8707 20.4158
ltoes -3.78771
3143
root -1.06164 15.5953 6.21799 11.2879 1.66559 -6.28537
lowerback -5.78393 1.17216 7.81929
upperback -5.09558 1.28 1.38143
thorax -1.92017 0.443758 -2.89418
lowerneck -14.6673 3.75659 10.1108
upperneck 35.3625 3.99185 -4.00427
head 15.1063 2.54286 -2.76634
rclavicle -7.21371e-015 2.29099e-014
rhumerus -24.0236 9.34194 -85.4541
rradius 36.416
rwrist 2.66289
rhand -13.235 -5.91324
rfingers 7.12502
rthumb 12.8666 -35.4966
lclavicle -7.21371e-015 2.29099e-014
lhumerus -41.6679 2.14054 80.901
lradius 47.2723
lwrist -11.9518
lhand -6.89652 11.3112
lfingers 7.12502
lthumb 18.9703 40.4061
rfemur -9.09097 0.514555 32.6801
rtibia 17.7655
rfoot -17.16 -15.0366
rtoes 2.91363
lfemur -39.7023 -6.9168 -12.4589
ltibia 33.6634
lfoot -18.9937 20.8693
ltoes -3.71745
3144
root -1.05462 15.5911 6.34674 11.3527 1.32218 -6.38888
lowerback -5.84231 1.26355 7.84627
upperback -5.1229 1.39552 1.3577
thorax -1.90311 0.500121 -2.92764
lowerneck -14.6673 3.78867 10.1022
upperneck 35.4426 4.06188 -4.04801
head 15.1522 2.56707 -2.77305
rclavicle 2.776e-016 -1.39398e-014
rhumerus -24.0525 9.75352 -85.6858
rradius 36.861
rwrist 2.46066
rhand -13.2598 -5.7701
rfingers 7.12502
rthumb 12.8427 -35.355
lclavicle 2.776e-016 -1.39398e-014
lhumerus -41.8306 2.46812 80.6715
lradius 46.7973
lwrist -12.0596
lhand -6.74465 11.2255
lfingers 7.12502
lthumb 19.1164 40.306
rfemur -8.12839 0.731964 32.7288
rtibia 16.7841
rfoot -16.9877 -14.9735
rtoes 2.65859
lfemur -39.7312 -7.47487 -11.7368
ltibia 31.3926
lfoot -19.1545 21.3017
ltoes -3.72144
